<?xml version="1.0" encoding="UTF-8" standalone="no"?>
<!-- Created with Inkscape (http://www.inkscape.org/) -->

<svg
   xmlns:dc="http://purl.org/dc/elements/1.1/"
   xmlns:cc="http://creativecommons.org/ns#"
   xmlns:rdf="http://www.w3.org/1999/02/22-rdf-syntax-ns#"
   xmlns:svg="http://www.w3.org/2000/svg"
   xmlns="http://www.w3.org/2000/svg"
   xmlns:sodipodi="http://sodipodi.sourceforge.net/DTD/sodipodi-0.dtd"
   xmlns:inkscape="http://www.inkscape.org/namespaces/inkscape"
   width="778.72504"
   height="527.05389"
   id="svg2"
   version="1.1"
   inkscape:version="0.48.4 r9939"
   sodipodi:docname="superhero.svg">
  <defs
     id="defs4" />
  <sodipodi:namedview
     id="base"
     pagecolor="#ffffff"
     bordercolor="#666666"
     borderopacity="1.0"
     inkscape:pageopacity="0.0"
     inkscape:pageshadow="2"
     inkscape:zoom="0.7"
     inkscape:cx="215.62793"
     inkscape:cy="197.72589"
     inkscape:document-units="px"
     inkscape:current-layer="layer1"
     showgrid="false"
     inkscape:window-width="1918"
     inkscape:window-height="1011"
     inkscape:window-x="0"
     inkscape:window-y="0"
     inkscape:window-maximized="1"
     fit-margin-top="0"
     fit-margin-left="0"
     fit-margin-right="0"
     fit-margin-bottom="0" />
  <metadata
     id="metadata7">
    <rdf:RDF>
      <cc:Work
         rdf:about="">
        <dc:format>image/svg+xml</dc:format>
        <dc:type
           rdf:resource="http://purl.org/dc/dcmitype/StillImage" />
        <dc:title></dc:title>
      </cc:Work>
    </rdf:RDF>
  </metadata>
  <g
     inkscape:label="Layer 1"
     inkscape:groupmode="layer"
     id="layer1"
     transform="translate(-394.21288,-742.37433)">
    <rect
       style="fill:#0000ff;stroke:#000000;stroke-width:0.68580782"
       id="rect3153"
       width="135.91745"
       height="205.64821"
       x="462.99603"
       y="-18.250513"
       ry="35.592957"
       transform="matrix(0.8116459,0.58414976,-0.59196256,0.80596546,0,0)" />
    <rect
       style="fill:#0000ff;stroke:#000000;stroke-width:0.70095277"
       id="rect2987-2-4-3"
       width="35.707561"
       height="143.55295"
       x="271.44183"
       y="-641.18054"
       transform="matrix(-0.05369476,0.9985574,-0.99431327,-0.10649468,0,0)"
       inkscape:transform-center-x="1.3875522"
       inkscape:transform-center-y="38.964104" />
    <path
       style="fill:#ff0000;stroke:none"
       d="m 803.39843,106.58025 c -8.22038,0.43919 -18.16627,12.38601 -35.25,22.125 -4.45528,3.92214 -8.72425,8.04874 -13.09375,12.0625 -0.8502,0.66212 -1.82595,1.37418 -2.84375,2.125 -2.16614,0.40977 -4.40439,0.57425 -6.75,0.3125 -5.75602,5.7e-4 -11.50163,0.004 -17.25,0.34375 -5.8645,0.45298 -11.69819,1.24134 -17.28125,3.1875 -16.31331,2.6973 -30.56312,14.34859 -44.53125,22.71875 -11.56072,3.97146 -20.0296,6.26815 -20.4375,13.625 -1.85294,1.48307 -3.69237,2.98486 -5.5,4.53125 -6.34174,5.27095 -12.17482,11.13384 -18.625,16.28125 -2.45296,1.96902 -4.90481,3.95067 -7.375,5.90625 -1.55307,-0.80595 -2.59751,-0.35908 -4.28125,1.25 -5.309,1.04524 -10.61732,0.97514 -16.09375,0.78125 -5.65134,-0.12178 -11.32401,-0.29589 -16.875,-1.46875 -5.73732,-1.34617 -11.34482,-3.104 -17.125,-4.28125 -5.7888,-1.58907 -12.15509,-2.34667 -18.125,-1.9375 -7.29528,0.92355 -14.5098,2.49409 -21.90625,2.25 -8.3187,0.43491 -16.48047,1.67294 -24.1875,5.03125 -10.65305,5.16456 -21.00841,10.85765 -31.28125,16.71875 l -1.125,0 0,0.625 c -6.20491,3.55072 -12.38288,7.16655 -18.5625,10.78125 l -1.4375,0 0,0.84375 c -3.42081,2.00006 -6.84676,3.98503 -10.28125,5.96875 -1.1272,0.6658 -2.55587,1.55156 -3.90625,2.375 -3.36133,1.59571 -6.73225,3.14089 -10.125,4.65625 l -15.28125,11.875 -7.5625,0 0,5.875 -10.53125,8.1875 c 3.56748,-1.35511 7.06947,-2.86155 10.53125,-4.46875 l 0,6.125 6.0625,0 c 0.6575,0.46215 1.31118,0.91671 1.96875,1.375 -0.26924,0.12808 -0.53498,0.25989 -0.78125,0.375 0.29829,-0.0911 0.58801,-0.19315 0.90625,-0.28125 2.98837,2.07891 6.02403,4.06845 9.125,5.96875 0.88125,0.6159 1.70301,1.26985 2.375,1.96875 5.68338,3.4974 11.99511,5.49645 17.9375,8.46875 5.40501,2.6413 10.02018,6.46865 13.34375,11.53125 2.85522,4.8822 3.88225,10.36 5.1875,15.8125 1.68467,6.131 3.53014,11.78515 10.09375,14.15625 7.75535,1.7206 15.31606,0.1731 23.03125,-1.25 18.60101,-1.0725 38.63202,-9.61725 50.21875,-24.46875 3.90446,-0.9826 7.84201,-1.8269 11.8125,-2.5625 9.28748,-1.5025 18.5864,-2.72345 28,-2.84375 7.66212,-0.4602 15.07089,1.3261 22.53125,2.6875 7.74248,2.1203 15.28045,4.94295 22.96875,7.28125 8.79837,2.3703 17.51855,5.00365 26.59375,6.03125 8.27061,1.2447 16.54013,1.651 24.875,1 7.9354,-0.911 15.64976,-2.87175 23.28125,-5.15625 7.00728,-1.8068 13.757,-4.3498 19.96875,-8.0625 5.06909,-3.7077 10.23669,-7.29045 15.375,-10.90625 8.55994,-1.7251 15.85738,-5.86915 18.4375,-13.65625 5.7031,-4.57682 11.16035,-9.43658 16.15625,-14.84375 4.08981,-4.80012 8.13809,-9.59815 12.375,-14.25 1.56937,-0.86166 3.15628,-1.68996 4.75,-2.5 6.63959,-0.69348 6.6912,-1.25815 13.1875,-6.1875 2.15566,-0.94774 4.33213,-1.88749 6.5,-2.8125 8.2598,-3.55006 17.1008,-5.13384 25.9375,-6.4375 9.6335,-1.49916 19.21445,-2.86381 28.90625,-1.34375 7.8442,2.06107 14.92015,6.1936 22.21875,9.625 8.176,4.36317 16.33055,8.57645 24.84375,12.25 8.6101,4.13538 17.98445,5.7779 27.28125,7.53125 l 1.25,-1.0625 c 1.15808,1.30975 22.31119,-0.24146 23.375,1.14286 l 16.15625,-18.73661 c -3.4284,-4.07121 -7.33985,-7.74918 -10.28125,-12.21875 -5.1936,-6.34129 -10.54445,-12.53945 -16.34375,-18.34375 -6.1881,-6.60505 -12.2437,-13.41348 -19.6875,-18.65625 -6.2804,-4.86674 -12.40535,-9.93404 -19.34375,-13.875 -5.9676,-4.33473 -12.07335,-8.53803 -17.84375,-13.125 -6.3453,-5.0911 -12.18695,-10.70016 -18.59375,-15.71875 -7.4642,-5.50247 -15.1847,-10.76311 -23.625,-14.65625 -6.8714,-3.21585 -13.21535,-7.12565 -18.96875,-12.125 -5.3416,-4.37322 -9.81925,-9.44817 -12.71875,-15.78125 -3.69825,-6.8311 -7.16099,-9.60121 -10.96875,-9.75 -0.26178,-0.0102 -0.51608,-0.0142 -0.78125,0 z M 403.55468,282.7365 c -4.98529,1.52201 -6.90769,3.22865 0,0 z m 432.4375,-76.21875 c 0.10815,0.0806 0.23559,0.13807 0.34375,0.21875 -0.0957,0.0682 -0.18031,0.14684 -0.28125,0.21875 -0.0252,-0.0303 -0.0713,-0.0645 -0.0937,-0.0937 -0.0583,-0.0759 -0.12774,-0.14357 -0.1875,-0.21875 0.0819,-0.0498 0.13992,-0.0771 0.21875,-0.125 z m -123.4375,21.1875 c 0.62151,0.46229 1.22646,0.93863 1.84375,1.40625 -0.15101,0.1038 -0.28401,0.17627 -0.4375,0.28125 -0.475,-0.55673 -0.9401,-1.1228 -1.40625,-1.6875 z m -249.09375,9.59375 0,2.25 -4.4375,0 c 1.54817,-0.80317 3.02678,-1.56982 4.3125,-2.1875 0.0419,-0.0211 0.0831,-0.0416 0.125,-0.0625 z m -20,12.09375 0,1.59375 -2.46875,0 c 0.82582,-0.52871 1.64523,-1.06145 2.46875,-1.59375 z m -14.3125,8.875 0,1.28125 -2.21875,0 c 0.74145,-0.42266 1.48236,-0.85069 2.21875,-1.28125 z"
       id="path4025-7"
       inkscape:connector-curvature="0"
       sodipodi:nodetypes="ccccccccccccccccccccccccccccccccccccccccccccccccccccccccccccccccccccccccccccccccccccccccccccccccccccccccc" />
    <path
       sodipodi:type="arc"
       style="fill:#0000ff;stroke:#000000"
       id="path2985"
       sodipodi:cx="207.14285"
       sodipodi:cy="208.07646"
       sodipodi:rx="64.285713"
       sodipodi:ry="78.571426"
       d="m 271.42857,208.07646 c 0,43.3938 -28.7817,78.57143 -64.28572,78.57143 -35.50402,0 -64.28571,-35.17763 -64.28571,-78.57143 0,-43.3938 28.78169,-78.57142 64.28571,-78.57142 35.44528,0 64.20259,35.06565 64.28554,78.38754"
       sodipodi:start="0"
       sodipodi:end="6.280845"
       sodipodi:open="true"
       transform="matrix(0.75314185,0.43303125,-0.43233748,0.74788064,416.63623,-7.2302446)" />
    <rect
       style="fill:#0000ff;stroke:#000000;stroke-width:1.11374629"
       id="rect2987-1-4"
       width="63.387928"
       height="204.15533"
       x="240.7312"
       y="-448.38214"
       transform="matrix(-0.32139658,0.94694469,-0.92266623,-0.38559956,0,0)" />
    <path
       style="fill:#ffff00;stroke:#000000;stroke-width:0.69230527"
       d="m 126.03125,318.28125 -14.21875,66.75 22.75,1.125 0.375,-1.78125 c 10.10653,0.25049 20.9721,-12.31578 24.40625,-28.3125 l 0.0312,-0.0937 c 3.4172,-16.02913 -1.94332,-29.42754 -11.96875,-30.15625 l 1.375,-6.40625 -22.75,-1.125 z"
       id="path3173"
       inkscape:connector-curvature="0" />
    <rect
       style="fill:#0000ff;stroke:#000000;stroke-width:1.11374629"
       id="rect2987-1-4-0"
       width="63.387928"
       height="204.15533"
       x="319.66882"
       y="484.14328"
       transform="matrix(0.99540589,-0.09574505,0.02723497,0.99962906,0,0)" />
    <path
       style="fill:#ff6600;stroke:none"
       id="path3245"
       d="m 833.55952,-127.93839 c 6.56114,4.50729 14.8686,5.14069 22.56624,5.93489 10.10392,1.11903 19.93164,2.7615 29.65747,5.70063 8.54658,2.65062 15.83556,7.83516 23.03695,12.96691 7.15391,5.22816 13.70606,11.20789 19.99697,17.4304 6.53714,6.45107 13.05352,12.92309 19.56004,19.40501 4.70498,5.29531 8.62952,11.14044 15.00099,14.51743 5.18245,2.34171 9.65954,-0.96816 14.17998,-3.29613 4.03692,-1.35379 7.91782,-2.99764 12.01709,-4.18857 0,0 -33.14685,25.70503 -33.14685,25.70503 l 0,0 c -3.98629,1.42807 -7.94857,2.94755 -11.79401,4.72461 -5.64611,2.50053 -11.00648,3.27039 -16.53101,-0.14239 -6.14671,-4.14321 -10.48273,-9.96036 -15.23371,-15.56798 -6.4378,-6.49966 -12.84357,-13.03371 -19.43903,-19.3744 -6.32166,-5.89692 -12.61226,-11.87038 -19.69314,-16.86828 -6.97402,-4.81848 -14.07317,-9.56742 -22.35333,-11.83138 -9.46533,-2.86666 -19.20524,-4.08275 -29.01152,-5.23535 -8.54976,-1.05357 -17.31815,-2.30112 -24.62662,-7.2287 0,0 35.81349,-22.65173 35.81349,-22.65173 z"
       inkscape:connector-curvature="0" />
    <path
       style="fill:#ff6600;stroke:none"
       id="path3247"
       d="m 572.21834,-67.286517 c 2.67151,-0.93693 5.26691,-2.142662 7.83564,-3.339422 1.03573,-0.48253 4.03992,-2.13538 3.04889,-1.56667 -36.28265,20.821143 -42.85575,25.270193 -28.77245,15.998943 7.80497,-5.04813 15.24598,-10.648761 22.02518,-17.010763 13.23939,-12.17397 32.99913,-38.211731 50.03984,-26.32353 4.05516,4.56237 8.98055,8.14045 13.3932,12.27712 4.36099,6.08928 -0.37767,11.77722 -4.09326,16.776 -5.79287,6.232683 -11.78167,12.217663 -16.72756,19.168973 -4.79957,8.53589 -5.88431,14.66337 -1.23399,23.42483 18.42494,22.6685301 16.11711,11.95907 -27.99097,32.5603801 -4.77143,-5.86805 -9.80303,-11.3356 -13.0897,-18.2036301 -3.51289,-6.90977 -5.43861,-14.01214 -5.44667,-21.73646 0.37808,-6.65175 -2.85971,-11.58843 -8.61924,-14.60197 -5.59457,-3.25953 -11.87106,-4.42822 -18.20303,-5.19191 -0.43407,-0.0903 -1.01297,0.0651 -1.3022,-0.27093 -12.33411,-14.329813 32.8892,-23.260763 36.02093,-24.926353 0.61852,-0.32896 1.40134,0.16591 2.0991,0.10349 1.77452,-0.15872 3.4954,-0.6937 5.25093,-0.99737 15.88047,-4.88246 44.56061,-23.316111 -18.52084,12.721712 4.71215,-2.605912 8.67788,-6.214532 12.73185,-9.698672 0.85113,-0.73897 1.71738,-1.46087 2.55338,-2.21691 0.58435,-0.52845 2.92889,-3.64814 3.75225,-3.97703 39.81252,-15.902991 47.10157,-24.605661 35.51271,-12.02274 -6.53531,8.03567 -14.18617,14.89521 -22.20805,21.39948 -17.25878,13.198513 -36.43832,23.749833 -56.01774,33.088123 -5.80221,2.15836 -11.5485,4.38642 -17.64105,5.58711 -2.67939,0.50091 -5.40889,0.55261 -8.10104,0.95161 -0.44109,0.0654 -0.92245,0.041 -1.31294,0.25627 -0.15609,0.0861 -0.24596,0.63171 -0.10342,0.52467 11.61987,-8.72649 23.09587,-17.64293 34.64381,-26.4644 0.62867,-0.25804 1.27149,-0.48397 1.886,-0.77412 2.99962,-1.41634 6.31477,-3.56004 5.56337,-3.1314 -57.96007,33.06405 -38.41288,22.31671 -25.95563,14.55573 14.81378,-9.04526 29.93492,-17.776251 45.10409,-26.084213 3.62159,-1.9835 6.53935,0.076 9.34339,2.12771 5.61588,6.103332 9.80886,13.290313 14.41931,20.136453 4.33672,6.25504 7.50714,13.17544 11.44659,19.66343 4.17343,6.08455 8.2372,12.24613 11.83304,18.6918 1.18413,2.85189 3.40119,4.87553 5.46499,7.0702601 0,0 -36.02242,21.7606599 -36.02242,21.7606599 l 0,0 c -2.08941,-2.53428 -4.42942,-4.9085599 -5.78386,-7.9535199 -3.47327,-6.43677 -7.48356,-12.56386 -11.58771,-18.6131601 -3.93349,-6.42196 -7.23059,-13.20026 -11.34528,-19.51596 -4.209,-6.31039 -7.87459,-13.24106 -13.67091,-18.26941 -2.04719,-0.58087 -1.85142,-0.85172 -3.98742,-0.0876 -0.94304,0.33736 -3.58954,1.77063 -2.72719,1.26122 58.43685,-34.520463 39.18995,-22.525413 26.44453,-15.33009 -17.32398,11.31444 -34.75033,23.12928 -54.09714,30.55857 46.20012,-36.470933 17.94516,-21.79481 41.96877,-26.8225 5.81318,-1.61362 11.50107,-3.74104 17.00323,-6.209521 12.96721,-6.097442 31.74336,-17.550952 -26.38281,15.842961 -1.19678,0.68756 2.31953,-1.49671 3.48631,-2.23402 5.54142,-3.50172 2.11179,-1.13443 7.67937,-5.22657 8.08914,-5.98436 15.98788,-12.451513 22.00886,-20.580333 12.22901,-13.07715 1.27722,-1.97874 42.67554,-20.034101 0.1652,-0.072 -0.83672,0.10193 -2.51017,1.794301 -6.14821,6.2177 2.61827,-1.884791 -4.42335,4.48027 -4.07314,3.57182 -7.86717,7.4791 -12.50377,10.30797 -16.70507,9.67004 -34.32085,23.622103 -54.22098,27.714033 -23.04773,3.49369 4.28755,-3.42149 27.35612,-20.416533 2.70711,-1.99438 -4.45182,-3.88151 -1.30765,-2.96908 6.59025,1.38431 13.08654,3.086 18.88272,6.67782 6.35337,4.308072 10.89749,10.426313 10.75592,18.425043 -0.34112,7.33709 1.09317,13.46439 4.4625,20.06012 3.04837,6.49135 7.78712,11.74297 12.91317,16.70894 -12.20029,6.86884 -24.86238,12.9752601 -36.60087,20.6065001 -0.74953,0.48727 0.87019,1.67079 1.64344,2.11948 0.54801,0.318 -0.54988,-1.14473 -0.88754,-1.68085 -2.43564,-3.86722997 -5.53512,-7.25749 -8.34077,-10.8464 -5.54815,-9.9805101 -5.48129,-16.8556801 -0.90531,-27.3252801 4.27166,-7.35459 10.17396,-13.62558 16.35411,-19.4308 0.51684,-0.62629 7.50419,-9.51527 7.50685,-9.74012 0.006,-0.53437 -0.47911,-0.95541 -0.71866,-1.43311 -4.0998,-3.855193 -8.40357,-7.666503 -12.8622,-11.061733 -1.75357,-0.15843 -0.90934,-0.30709 -2.52749,0.47457 11.3413,-6.67562 22.6826,-13.35124 34.0239,-20.02685 0.82378,-0.47993 -1.63614,0.99048 -2.37756,1.58984 -1.90127,1.53696 -3.44617,3.4834 -5.3551,5.01162 -6.46247,6.85444 -14.06218,12.51423 -21.81255,17.83484 -17.28705,11.387433 -35.07539,22.082973 -53.96648,30.534963 0,0 33.13114,-26.501781 33.13114,-26.501781 z"
       inkscape:connector-curvature="0" />
    <path
       style="fill:#ffff00;stroke:#000000;stroke-width:0.91635662"
       d="m 394.32589,619.34821 c -28.21427,-0.37765 -51.5107,7.4365 -52.46875,17.5 l -3.125,-0.0312 -1.125,22.8125 108.09375,1.53125 0,-22.8125 -0.5,0 c 0.0879,-10.10618 -22.46236,-18.56638 -50.75,-18.96875 l -0.125,-0.0312 z"
       id="path3173-5"
       inkscape:connector-curvature="0" />
    <rect
       style="fill:#00ff00;stroke:none"
       id="rect4106"
       width="520"
       height="514.28571"
       x="-497.14285"
       y="703.79077" />
    <g
       id="g4157"
       transform="translate(768.57143,-249.99999)">
      <path
         inkscape:connector-curvature="0"
         id="rect4127"
         d="m 431.33482,125.83929 -7.34375,7.375 c 0.53652,0.75754 1.13182,1.43353 1.78125,1.96875 l 110.25,90.84375 c 2.74835,2.26502 5.24687,1.26005 5.625,-2.28125 0.37813,-3.5413 -1.5329,-8.23498 -4.28125,-10.5 L 431.33482,125.83929 z"
         style="fill:#ff6600;stroke:none" />
      <g
         transform="matrix(0.94344264,0.07798768,0.18887957,0.86434853,17.744714,12.795235)"
         id="g4152">
        <rect
           style="fill:#ff6600;stroke:none"
           id="rect4129"
           width="57.142857"
           height="54.285713"
           x="435.23367"
           y="-224.26309"
           ry="6.4285712"
           transform="matrix(0.78273039,0.62236094,-0.62236094,0.78273039,0,0)" />
        <path
           sodipodi:type="arc"
           style="fill:#ff6600;stroke:none"
           id="path4125"
           sodipodi:cx="502.85715"
           sodipodi:cy="176.6479"
           sodipodi:rx="38.57143"
           sodipodi:ry="30"
           d="m 541.42858,176.6479 c 0,16.56855 -17.26902,30 -38.57143,30 -21.30242,0 -38.57143,-13.43145 -38.57143,-30 0,-16.56854 17.26901,-30 38.57143,-30 21.26717,0 38.52155,13.38871 38.57132,29.92979"
           sodipodi:start="0"
           sodipodi:end="6.280845"
           sodipodi:open="true"
           transform="matrix(0.99875924,0.71952358,-0.6604698,1.0880601,123.00882,-417.08749)" />
        <rect
           style="fill:#ff6600;stroke:none"
           id="rect4129-3"
           width="57.142857"
           height="54.285713"
           x="468.63547"
           y="-232.00684"
           ry="6.4285712"
           transform="matrix(0.77069635,0.63720259,-0.63720259,0.77069635,0,0)" />
      </g>
    </g>
    <path
       sodipodi:type="arc"
       style="fill:#ff0000;stroke:none"
       id="path4164"
       sodipodi:cx="501.42856"
       sodipodi:cy="230.93361"
       sodipodi:rx="11.428572"
       sodipodi:ry="10"
       d="m 512.85713,230.93361 c 0,5.52285 -5.11675,10 -11.42857,10 -6.31183,0 -11.42857,-4.47715 -11.42857,-10 0,-5.52285 5.11674,-10 11.42857,-10 6.30138,0 11.41379,4.4629 11.42854,9.9766"
       sodipodi:start="0"
       sodipodi:end="6.280845"
       sodipodi:open="true"
       transform="translate(1078.5714,-335.71429)" />
    <rect
       style="fill:#ff6600;stroke:none"
       id="rect4166"
       width="41.42857"
       height="42.857143"
       x="1325.7142"
       y="3.7907407"
       ry="6.4285712" />
    <path
       style="fill:#000000;stroke:#000000;stroke-width:1px;stroke-linecap:butt;stroke-linejoin:miter;stroke-opacity:1"
       d="m 1572.8571,-24.780675 1.4286,22.8571405 -24.2857,-4.28571"
       id="path4168"
       inkscape:connector-curvature="0" />
    <rect
       style="fill:#0000ff;stroke:#000000;stroke-width:0.70017129"
       id="rect2987-2-4"
       width="35.850727"
       height="142.66106"
       x="-241.60854"
       y="-411.93701"
       transform="matrix(-0.92361732,0.38331585,-0.43050781,-0.90258685,0,0)"
       inkscape:transform-center-x="35.811663"
       inkscape:transform-center-y="15.622799" />
    <g
       id="g4252">
      <path
         id="rect3153-1"
         d="m 625.625,758.6875 -33.09375,13.75 58.21875,122.09375 -70.9375,96.59375 -145.28125,-60.71875 -20.375,60.03125 187.59375,78.375 16.28125,8.9063 0.34375,0.25 5.125,187.75 63.09375,-6.0938 -4.84375,-177.7812 c 0.36045,-0.4453 0.7199,-0.9088 1.0625,-1.375 l 79.59375,-108.37505 c 0.97922,-1.33322 1.82635,-2.71474 2.59375,-4.125 l 142.59375,15.28125 1.9375,-35.65625 -142.75,-15.28125 -0.0937,1.875 -1.84375,0 c -2.44621,-4.41434 -5.84972,-8.39557 -10.25,-11.5625 l -52.5625,-37.8125 c -5.91051,-4.25385 -12.6653,-6.4329 -19.4375,-6.71875 L 625.625,758.6875 z"
         style="fill:#034569;fill-opacity:1;stroke:none"
         inkscape:connector-curvature="0" />
      <path
         id="path4218"
         d="m 1044.375,742.375 c -0.052,0.003 -0.1155,0.0233 -0.1562,0.0625 -5.0526,4.85819 -17.1011,9.92482 -32.1563,18.84375 -4.6934,2.78045 -8.2092,7.26521 -12.375,10.8125 -0.74671,0.63583 -1.52952,1.50602 -2.625,1.84375 -1.80442,0.55629 -3.75747,0.007 -5.75,-0.28125 -4.84798,-0.70067 -9.72295,-1.09313 -14.625,-1.21875 -5.00952,-0.12837 -9.88366,0.91588 -14.96875,1.625 -14.00665,1.95325 -26.7349,12.78593 -40.0625,18.59375 -9.72608,4.23837 -16.43346,4.72749 -18.75,11.71875 -0.68086,2.05482 -3.41692,2.64351 -5.125,4 -5.90746,4.69147 -11.47101,9.98668 -17.46875,14.53125 -2.2872,1.73305 -4.07204,4.59699 -6.875,5.21875 -1.51126,0.33523 -1.70067,0.17847 -3.75,0.84375 -4.41068,1.43184 -9.06809,-0.0101 -13.6875,-0.65625 -4.76442,-0.66646 -9.57332,-1.24447 -14.125,-2.96875 -4.73614,-1.79416 -9.36472,-3.93843 -14.0625,-5.8125 -4.80776,-1.91795 -10.02857,-3.62291 -15.125,-3.5625 -6.27614,0.0744 -12.50847,0.85615 -18.78125,0.28125 -7.06295,-0.64732 -14.19521,0.0175 -21,2.84375 -9.63534,4.00244 -17.75235,14.92232 -28.21875,13.8125 3.64562,-1.9998 -1.11805,0.0269 -0.96875,-0.0937 0.23947,-0.19355 0.89116,0.0743 0.9375,0.0937 -0.30629,0.16783 -0.56777,0.30275 -1,0.53125 -5.6254,2.97398 -10.49798,9.70406 -16.84375,9.03125 0,0 -0.079,-0.0253 -0.0937,-0.0312 -0.1709,0.14962 -0.52775,0.37579 -1.21875,0.75 -3.10577,1.68191 -6.20119,3.32753 -9.3125,5 -1.02851,0.55287 -2.28172,1.43266 -3.5625,2.03125 -2.96735,1.38682 -6.03162,2.51634 -9.0625,3.71875 -3.03459,1.20388 -9.8,6.53771 -14.1875,10.4375 -1.56507,1.39109 -4.28125,4.59375 -4.28125,4.59375 -3.62884,3.88015 -0.99575,8.02576 -0.8125,10.65625 0.18325,2.63049 3.93852,3.84069 5.21875,5.4375 1.28024,1.59681 3.92035,1.59947 5.65625,3.21875 1.7359,1.61928 -0.66479,-0.22446 1.8125,2.15625 2.47729,2.38071 8.33838,7.10586 12.84375,10.40625 4.50537,3.3004 9.40939,7.05781 11.5,12.28125 2.09061,5.22343 8.50188,3.16824 9.15625,9.0625 0.65437,5.89425 6.92272,3.7221 12.78125,6.40625 5.85853,2.68415 12.34461,7.81691 19.0625,7.78125 15.86552,-0.0842 26.71261,-2.5194 33.5,-11.0625 6.78739,-8.5431 6.80604,-1.18865 10.25,-1.5 8.01249,-0.72437 16.00547,-0.8388 24,-0.3125 6.52251,0.42939 12.72425,2.34831 18.78125,4.6875 6.45675,2.49357 12.3392,6.4195 18.65625,9.3125 7.14048,3.27011 15.4051,4.97787 22.9375,6.96875 6.91023,1.82643 13.65872,2.20382 20.78125,2.15625 6.81404,-0.0455 12.61294,0.91511 19.34375,-0.53125 6.09183,-1.30905 12.251,-2.86055 17.75,-6.25 4.84228,-2.98466 8.77738,-7.66264 14.15625,-9.46875 7.09668,-2.38291 12.33636,-5.33941 17.0625,-11.90625 3.8968,-5.41449 10.51029,-8.29809 15.21875,-13.3125 4.05852,-4.32224 7.63175,-9.11811 12.00005,-13.0625 1.1796,-1.0651 2.7102,-1.8958 4.2812,-2.0625 5.6608,-0.60066 5.5687,-0.9845 11.8126,-4.96875 1.7408,-1.11078 3.8509,-1.48904 5.7812,-2.21875 7.3661,-2.78451 15.0119,-3.52257 22.625,-4.0625 8.3133,-0.58959 16.7217,-1.55619 24.625,1.25 6.5836,2.3376 12.0901,7.3242 17.7812,11.5625 6.5868,4.90515 13.0037,9.83569 19.7188,14.40625 6.9552,4.73398 16.0071,15.02777 22.3125,9.9375 L 1136.8438,915 c 1.2753,-1.02963 18.5429,4.47324 19.6562,3.25 l 15.6562,-17.1875 c 3.3714,-3.70422 -5.114,-8.51243 -7.4062,-13.09375 -3.4586,-6.91265 -7.7159,-13.32476 -11.9062,-19.6875 -4.6462,-7.05482 -9.0727,-14.30522 -14.6876,-20.3125 -4.9358,-5.28086 -9.7187,-10.71624 -14.9062,-15.5625 -4.879,-4.55802 -9.3316,-9.53492 -13.7188,-14.625 -4.8451,-5.62146 -9.1127,-11.82599 -14.0937,-17.3125 -5.6489,-6.22216 -11.7183,-12.04015 -18.4375,-16.6875 -5.4885,-3.79616 -10.3626,-8.35522 -14.7812,-13.78125 -3.9831,-4.89125 -7.1015,-10.3143 -9.0938,-16.8125 -2.2046,-7.19085 -5.0435,-10.1977 -8.25,-10.6875 -0.1654,-0.0253 -0.3428,-0.13521 -0.5,-0.125 z M 726.71875,842.4375 c 0.35239,-0.30851 -0.14054,-0.24331 -0.59375,-0.15625 0.28452,0.0444 0.5122,0.12313 0.59375,0.15625 z m -0.59375,-0.15625 c -0.2098,-0.0327 -0.40935,-0.036 -0.53125,0.0625 -0.0697,0.0563 0.21678,-0.002 0.53125,-0.0625 z m 16.625,-0.375 c -0.51432,0.54585 0.36455,1.77858 -0.21875,2.25 -0.979,0.79122 -5.03741,0.20264 -3.75,-0.40625 1.3949,-0.65973 2.72233,-1.28131 3.875,-1.78125 0.0379,-0.0164 0.0557,-0.0458 0.0937,-0.0625 z m 318.5,2.8125 c -10e-4,6.4e-4 0,0.0303 0,0.0312 -0.1039,0.0647 0.2842,0.0965 0.2812,0.21875 0,0.1068 -0.142,0.18905 -0.25,0.21875 -0.035,0.01 -0.078,-0.0936 -0.094,-0.125 -0.04,-0.0804 -0.148,-0.13099 -0.125,-0.21875 0.022,-0.0831 0.2575,-0.16859 0.1875,-0.125 z m -336.8125,7.21875 c 0.0776,0.0249 0.1366,0.0781 0.125,0.1875 0,0 0.25694,1.25981 -0.15625,1.59375 -0.54467,0.44021 -2.09375,-0.21875 -2.09375,-0.21875 -0.76528,-0.0812 1.5819,-1.73682 2.125,-1.5625 z M 711.40625,859.5 c 0.0687,0.0243 0.10378,0.093 0.0937,0.1875 0,0 0.20716,1.01279 -0.125,1.28125 -0.48949,0.39561 -1.875,-0.21875 -1.875,-0.21875 -0.66082,-0.0701 1.42515,-1.42033 1.90625,-1.25 z"
         style="fill:#ff6700;fill-opacity:1;stroke:none"
         inkscape:connector-curvature="0" />
      <path
         inkscape:connector-curvature="0"
         id="path3173-1"
         d="m 417.21011,925.50732 -22.99723,64.25623 22.39652,4.15018 0.6093,-1.71529 c 9.98276,1.59663 22.42774,-9.40764 27.96543,-24.80318 l 0.0434,-0.0887 c 5.52521,-15.42992 2.00019,-29.42373 -7.83839,-31.48349 l 2.21741,-6.16553 -22.39652,-4.15018 z"
         style="fill:#ff6700;fill-opacity:1;stroke:none" />
      <path
         inkscape:connector-curvature="0"
         id="path3173-5-5"
         d="m 680.88686,1227.6154 c -28.21432,-0.3776 -51.51075,7.4365 -52.4688,17.5 l -3.125,-0.031 -1.125,22.8125 108.0938,1.5313 0,-22.8125 -0.5,0 c 0.088,-10.1062 -22.4624,-18.5664 -50.75,-18.9688 l -0.125,-0.031 z"
         style="fill:#ff6700;fill-opacity:1;stroke:none" />
      <path
         transform="matrix(0.75314185,0.43303125,-0.43233748,0.74788064,703.19716,601.03695)"
         sodipodi:open="true"
         sodipodi:end="6.280845"
         sodipodi:start="0"
         d="m 271.42857,208.07646 c 0,43.3938 -28.7817,78.57143 -64.28572,78.57143 -35.50402,0 -64.28571,-35.17763 -64.28571,-78.57143 0,-43.3938 28.78169,-78.57142 64.28571,-78.57142 35.44528,0 64.20259,35.06565 64.28554,78.38754"
         sodipodi:ry="78.571426"
         sodipodi:rx="64.285713"
         sodipodi:cy="208.07646"
         sodipodi:cx="207.14285"
         id="path2985-7"
         style="fill:#034569;fill-opacity:1;stroke:#000000"
         sodipodi:type="arc" />
    </g>
  </g>
</svg>
